<svg xmlns="http://www.w3.org/2000/svg" xmlns:xlink="http://www.w3.org/1999/xlink" width="500" zoomAndPan="magnify" viewBox="0 0 375 374.999991" height="500" preserveAspectRatio="xMidYMid meet" version="1.0"><defs><g/><clipPath id="bca5fd7f7c"><path d="M 41.640625 130.421875 L 103.140625 130.421875 L 103.140625 191.921875 L 41.640625 191.921875 Z M 41.640625 130.421875 " clip-rule="nonzero"/></clipPath><clipPath id="53a4d54026"><path d="M 55.859375 150.519531 L 88.859375 150.519531 L 88.859375 171.519531 L 55.859375 171.519531 Z M 55.859375 150.519531 " clip-rule="nonzero"/></clipPath></defs><g clip-path="url(#bca5fd7f7c)"><path fill="#4ca550" d="M 102.886719 166.257812 C 103.011719 162.113281 103.011719 162.105469 103.140625 157.957031 L 96.71875 155.453125 C 95.792969 153.007812 95.328125 151.78125 94.402344 149.335938 L 97.550781 143.199219 C 94.707031 140.1875 94.699219 140.179688 91.855469 137.15625 L 85.546875 139.925781 L 79.589844 137.234375 L 77.476562 130.675781 L 69.183594 130.421875 L 66.671875 136.84375 C 64.234375 137.769531 62.996094 138.234375 60.5625 139.160156 L 54.425781 136.015625 C 51.40625 138.851562 51.398438 138.859375 48.375 141.703125 L 51.140625 148.015625 C 50.078125 150.390625 49.535156 151.59375 48.460938 153.972656 L 41.894531 156.089844 C 41.765625 160.234375 41.765625 160.242188 41.640625 164.378906 L 48.0625 166.894531 C 48.988281 169.328125 49.453125 170.566406 50.378906 173.011719 L 47.234375 179.136719 C 50.078125 182.15625 50.085938 182.167969 52.917969 185.1875 L 59.230469 182.421875 C 61.617188 183.488281 62.820312 184.027344 65.199219 185.101562 L 67.304688 191.667969 L 75.609375 191.921875 L 78.113281 185.5 C 80.558594 184.574219 81.785156 184.109375 84.230469 183.183594 L 90.367188 186.332031 L 96.40625 180.644531 L 93.640625 174.335938 C 94.722656 171.957031 95.257812 170.746094 96.332031 168.367188 Z M 72.390625 179.214844 C 71.800781 179.214844 71.210938 179.1875 70.621094 179.128906 C 70.035156 179.070312 69.449219 178.984375 68.871094 178.867188 C 68.292969 178.753906 67.71875 178.609375 67.152344 178.4375 C 66.585938 178.265625 66.03125 178.066406 65.488281 177.839844 C 64.941406 177.613281 64.40625 177.363281 63.886719 177.085938 C 63.363281 176.804688 62.859375 176.503906 62.367188 176.175781 C 61.875 175.84375 61.402344 175.492188 60.945312 175.121094 C 60.488281 174.746094 60.050781 174.347656 59.632812 173.929688 C 59.214844 173.511719 58.820312 173.074219 58.445312 172.617188 C 58.070312 172.160156 57.71875 171.6875 57.390625 171.195312 C 57.0625 170.707031 56.757812 170.199219 56.480469 169.679688 C 56.203125 169.15625 55.949219 168.625 55.722656 168.078125 C 55.496094 167.53125 55.296875 166.976562 55.128906 166.410156 C 54.957031 165.84375 54.8125 165.273438 54.695312 164.691406 C 54.582031 164.113281 54.496094 163.53125 54.4375 162.941406 C 54.378906 162.355469 54.351562 161.765625 54.351562 161.171875 C 54.351562 160.582031 54.378906 159.992188 54.4375 159.40625 C 54.496094 158.816406 54.582031 158.234375 54.699219 157.652344 C 54.8125 157.074219 54.957031 156.503906 55.128906 155.9375 C 55.300781 155.371094 55.496094 154.816406 55.722656 154.269531 C 55.949219 153.722656 56.203125 153.191406 56.480469 152.667969 C 56.757812 152.148438 57.0625 151.640625 57.390625 151.152344 C 57.71875 150.660156 58.070312 150.1875 58.445312 149.730469 C 58.820312 149.273438 59.21875 148.835938 59.632812 148.417969 C 60.050781 148 60.488281 147.601562 60.945312 147.226562 C 61.402344 146.855469 61.878906 146.503906 62.367188 146.175781 C 62.859375 145.84375 63.367188 145.542969 63.886719 145.265625 C 64.40625 144.984375 64.941406 144.734375 65.488281 144.507812 C 66.035156 144.28125 66.589844 144.082031 67.152344 143.910156 C 67.71875 143.738281 68.292969 143.59375 68.871094 143.480469 C 69.449219 143.363281 70.035156 143.277344 70.621094 143.21875 C 71.210938 143.164062 71.800781 143.132812 72.390625 143.132812 C 72.980469 143.132812 73.570312 143.164062 74.160156 143.21875 C 74.746094 143.277344 75.332031 143.363281 75.910156 143.480469 C 76.488281 143.59375 77.0625 143.738281 77.628906 143.910156 C 78.191406 144.082031 78.75 144.28125 79.292969 144.507812 C 79.839844 144.730469 80.375 144.984375 80.894531 145.261719 C 81.417969 145.542969 81.921875 145.84375 82.414062 146.171875 C 82.90625 146.5 83.378906 146.851562 83.835938 147.226562 C 84.292969 147.601562 84.730469 148 85.148438 148.417969 C 85.566406 148.835938 85.960938 149.273438 86.335938 149.726562 C 86.710938 150.183594 87.0625 150.660156 87.390625 151.148438 C 87.71875 151.640625 88.023438 152.148438 88.300781 152.667969 C 88.582031 153.191406 88.832031 153.722656 89.058594 154.269531 C 89.285156 154.816406 89.484375 155.371094 89.65625 155.9375 C 89.828125 156.5 89.96875 157.074219 90.085938 157.652344 C 90.199219 158.234375 90.289062 158.816406 90.34375 159.40625 C 90.402344 159.992188 90.433594 160.582031 90.433594 161.171875 C 90.433594 161.761719 90.402344 162.351562 90.34375 162.941406 C 90.285156 163.527344 90.199219 164.113281 90.085938 164.691406 C 89.96875 165.273438 89.824219 165.84375 89.65625 166.410156 C 89.484375 166.976562 89.285156 167.53125 89.058594 168.078125 C 88.832031 168.621094 88.578125 169.15625 88.300781 169.675781 C 88.023438 170.199219 87.71875 170.703125 87.390625 171.195312 C 87.0625 171.6875 86.710938 172.160156 86.335938 172.617188 C 85.960938 173.074219 85.5625 173.511719 85.148438 173.929688 C 84.730469 174.347656 84.292969 174.742188 83.835938 175.117188 C 83.378906 175.492188 82.902344 175.84375 82.414062 176.171875 C 81.921875 176.5 81.414062 176.804688 80.894531 177.082031 C 80.375 177.363281 79.839844 177.613281 79.292969 177.839844 C 78.746094 178.066406 78.191406 178.265625 77.625 178.4375 C 77.0625 178.609375 76.488281 178.753906 75.910156 178.867188 C 75.328125 178.984375 74.746094 179.070312 74.160156 179.128906 C 73.570312 179.1875 72.980469 179.214844 72.390625 179.214844 Z M 72.390625 179.214844 " fill-opacity="1" fill-rule="nonzero"/></g><g clip-path="url(#53a4d54026)"><path fill="#4ca550" d="M 60.097656 161.019531 L 66.003906 165.761719 L 64.925781 168.300781 L 55.859375 161.019531 L 68.90625 150.542969 L 68.90625 153.945312 Z M 79.792969 153.738281 L 78.714844 156.277344 L 84.621094 161.019531 L 75.808594 168.089844 L 75.808594 171.496094 L 88.859375 161.015625 Z M 75.367188 150.542969 L 66.457031 171.496094 L 69.351562 171.496094 L 78.261719 150.542969 Z M 75.367188 150.542969 " fill-opacity="1" fill-rule="nonzero"/></g><g fill="#4ca550" fill-opacity="0.4"><g transform="translate(116.560892, 178.42559)"><g><path d="M 36.382812 6.144531 L 36.601562 2.34375 L 33.773438 -1.195312 L 33.773438 -8.839844 C 33.773438 -8.929688 33.816406 -8.972656 33.949219 -8.972656 L 36.867188 -9.285156 L 36.867188 -12.113281 L 32.84375 -17.152344 L 17.152344 -17.152344 C 17.503906 -25.328125 19.140625 -29.132812 22.015625 -29.132812 C 23.164062 -29.132812 24.179688 -28.867188 25.152344 -28.292969 C 25.816406 -26.746094 26.214844 -25.019531 26.433594 -22.589844 L 30.414062 -17.59375 L 33.640625 -17.59375 L 33.640625 -32.09375 L 29.617188 -37.132812 L 26.433594 -37.132812 C 26.347656 -35.230469 26.257812 -34.746094 26.082031 -34.746094 C 25.199219 -34.746094 22.898438 -37.488281 17.195312 -37.488281 C 7.25 -37.488281 0.972656 -30.015625 0.972656 -18.125 C 0.972656 -11.9375 2.652344 -6.632812 5.660156 -3.226562 L 8.488281 0.308594 C 11.359375 3.933594 15.25 6.054688 20.113281 6.054688 C 24.535156 6.054688 28.203125 4.421875 31.253906 4.421875 C 33.109375 4.421875 34.523438 5.082031 36.382812 6.144531 Z M 16.578125 0.707031 C 7.425781 0.707031 1.902344 -6.851562 1.902344 -18.125 C 1.902344 -31.03125 9.152344 -36.558594 17.195312 -36.558594 C 22.457031 -36.558594 24.800781 -33.773438 26.082031 -33.816406 C 26.964844 -33.816406 27.1875 -34.613281 27.320312 -36.203125 L 29.175781 -36.203125 L 29.175781 -22.941406 L 27.320312 -22.941406 C 26.613281 -30.589844 22.855469 -34.480469 18.476562 -34.480469 C 14.277344 -34.480469 12.644531 -28.691406 12.644531 -18.566406 C 12.644531 -8.707031 12.730469 -1.28125 18.167969 -1.28125 C 18.65625 -1.28125 19.140625 -1.371094 19.628906 -1.457031 L 19.628906 -13.261719 C 19.628906 -13.878906 19.316406 -14.234375 18.699219 -14.324219 L 16.398438 -14.589844 L 16.398438 -16.222656 L 32.402344 -16.222656 L 32.402344 -14.542969 L 30.191406 -14.324219 C 29.617188 -14.234375 29.308594 -13.878906 29.308594 -13.261719 L 29.308594 -3.007812 C 30.457031 -2.695312 31.429688 -2.210938 32.136719 -1.769531 L 32.003906 0.265625 C 30.722656 -0.484375 29.398438 -0.929688 27.71875 -0.929688 C 24.488281 -0.929688 20.820312 0.707031 16.578125 0.707031 Z M 10.785156 -33.199219 L 13.261719 -33.199219 C 13.527344 -33.640625 13.878906 -34.082031 14.144531 -34.4375 C 12.863281 -34.125 11.847656 -33.773438 10.785156 -33.199219 Z M 27.496094 -30.28125 L 27.496094 -32.535156 C 27.230469 -32.316406 26.789062 -32.226562 26.480469 -32.226562 L 26.347656 -32.226562 C 26.789062 -31.695312 27.1875 -30.945312 27.496094 -30.28125 Z M 7.867188 -30.988281 L 12.246094 -30.988281 C 12.378906 -31.386719 12.511719 -31.738281 12.6875 -32.136719 L 9.152344 -32.136719 C 8.707031 -31.785156 8.265625 -31.386719 7.867188 -30.988281 Z M 6.234375 -28.734375 L 11.625 -28.734375 C 11.714844 -29.132812 11.847656 -29.484375 11.9375 -29.882812 L 6.984375 -29.882812 C 6.71875 -29.53125 6.453125 -29.132812 6.234375 -28.734375 Z M 5.128906 -26.480469 L 11.226562 -26.480469 C 11.273438 -26.878906 11.359375 -27.273438 11.40625 -27.628906 L 5.613281 -27.628906 C 5.4375 -27.273438 5.261719 -26.878906 5.128906 -26.480469 Z M 4.421875 -24.226562 L 10.964844 -24.226562 L 11.09375 -25.375 L 4.730469 -25.375 C 4.640625 -25.019531 4.507812 -24.621094 4.421875 -24.226562 Z M 3.980469 -21.96875 L 10.832031 -21.96875 C 10.875 -22.367188 10.875 -22.765625 10.917969 -23.121094 L 4.199219 -23.121094 C 4.109375 -22.765625 4.066406 -22.367188 3.980469 -21.96875 Z M 3.757812 -19.761719 L 10.785156 -19.761719 L 10.785156 -20.910156 L 3.847656 -20.910156 C 3.847656 -20.511719 3.800781 -20.113281 3.757812 -19.761719 Z M 3.757812 -17.503906 L 10.785156 -17.503906 L 10.785156 -18.65625 L 3.757812 -18.65625 Z M 3.890625 -15.25 L 10.785156 -15.25 L 10.785156 -16.398438 L 3.800781 -16.398438 C 3.847656 -16.003906 3.847656 -15.648438 3.890625 -15.25 Z M 4.199219 -12.996094 L 10.832031 -12.996094 C 10.832031 -13.394531 10.785156 -13.792969 10.785156 -14.144531 L 3.980469 -14.144531 Z M 21.484375 -12.996094 L 27.453125 -12.996094 L 27.453125 -13.304688 C 27.453125 -13.617188 27.496094 -13.878906 27.585938 -14.144531 L 21.351562 -14.144531 C 21.441406 -13.878906 21.484375 -13.617188 21.484375 -13.304688 Z M 17.769531 -2.210938 C 17.152344 -5.082031 17.109375 -9.019531 17.109375 -13.570312 L 18.523438 -13.4375 C 18.65625 -13.394531 18.699219 -13.351562 18.699219 -13.21875 L 18.699219 -2.253906 C 18.523438 -2.210938 18.035156 -2.210938 17.769531 -2.210938 Z M 4.730469 -10.742188 L 10.964844 -10.742188 C 10.917969 -11.140625 10.917969 -11.539062 10.875 -11.890625 L 4.421875 -11.890625 C 4.507812 -11.539062 4.640625 -11.140625 4.730469 -10.742188 Z M 21.484375 -10.742188 L 27.453125 -10.742188 L 27.453125 -11.890625 L 21.484375 -11.890625 Z M 5.570312 -8.53125 L 11.140625 -8.53125 L 11.007812 -9.679688 L 5.082031 -9.679688 C 5.214844 -9.285156 5.394531 -8.886719 5.570312 -8.53125 Z M 21.484375 -8.53125 L 27.453125 -8.53125 L 27.453125 -9.679688 L 21.484375 -9.679688 Z M 6.808594 -6.277344 L 11.492188 -6.277344 C 11.449219 -6.632812 11.359375 -7.027344 11.316406 -7.425781 L 6.101562 -7.425781 C 6.320312 -7.027344 6.542969 -6.632812 6.808594 -6.277344 Z M 21.484375 -6.277344 L 27.453125 -6.277344 L 27.453125 -7.425781 L 21.484375 -7.425781 Z M 8.796875 -4.023438 L 12.15625 -4.023438 C 12.023438 -4.375 11.890625 -4.773438 11.804688 -5.171875 L 7.648438 -5.171875 C 8 -4.773438 8.398438 -4.375 8.796875 -4.023438 Z M 21.484375 -4.023438 L 27.453125 -4.023438 L 27.453125 -5.171875 L 21.484375 -5.171875 Z M 13.617188 -1.414062 C 13.351562 -1.769531 12.820312 -2.519531 12.644531 -2.917969 L 10.210938 -2.917969 C 11.09375 -2.386719 11.980469 -1.945312 13.617188 -1.414062 Z M 21.484375 -1.8125 C 23.5625 -2.296875 25.460938 -2.652344 27.453125 -2.695312 L 27.453125 -2.917969 L 21.484375 -2.917969 Z M 21.484375 -1.8125 "/></g></g></g><g fill="#4ca550" fill-opacity="0.4"><g transform="translate(154.926377, 178.42559)"><g><path d="M 5.082031 5.347656 L 33.597656 5.347656 L 34.125 -10.253906 L 30.058594 -15.296875 L 27.453125 -15.296875 L 27.453125 -21.925781 L 30.105469 -18.65625 L 33.375 -18.65625 L 33.375 -31.917969 L 29.351562 -36.957031 L 1.0625 -36.957031 L 1.0625 -33.863281 L 4.597656 -29.441406 L 4.597656 -4.066406 C 4.597656 -2.742188 4.640625 -2.785156 3.316406 -2.785156 L 1.0625 -2.785156 L 1.0625 0.308594 Z M 1.988281 0 L 1.988281 -1.855469 L 3.316406 -1.855469 C 5.171875 -1.855469 5.527344 -2.210938 5.527344 -4.066406 L 5.527344 -31.960938 C 5.527344 -33.816406 5.171875 -34.171875 3.316406 -34.171875 L 1.988281 -34.171875 L 1.988281 -36.027344 L 28.910156 -36.027344 L 28.910156 -24.179688 L 26.921875 -24.179688 C 26.921875 -30.679688 22.015625 -34.171875 16.84375 -34.257812 C 16.398438 -34.257812 15.472656 -34.214844 15.472656 -33.90625 L 15.472656 -19.449219 C 18.433594 -19.449219 20.996094 -22.675781 20.996094 -27.140625 L 22.988281 -27.140625 L 22.988281 -9.726562 L 20.996094 -9.726562 C 20.996094 -14.898438 18.433594 -17.59375 15.472656 -17.59375 L 15.429688 -4.066406 C 15.429688 -2.296875 15.78125 -1.636719 17.417969 -1.636719 C 22.765625 -1.636719 27.363281 -8.796875 27.628906 -14.367188 L 29.617188 -14.367188 L 29.175781 0 Z M 7.292969 -33.023438 L 13.617188 -33.023438 L 13.617188 -34.171875 L 7.027344 -34.171875 C 7.160156 -33.863281 7.25 -33.464844 7.292969 -33.023438 Z M 24.933594 -33.199219 L 27.054688 -33.199219 L 27.054688 -34.171875 L 23.648438 -34.171875 C 24.09375 -33.863281 24.535156 -33.550781 24.933594 -33.199219 Z M 27.054688 -30.503906 L 27.054688 -32.226562 L 25.859375 -32.226562 C 26.300781 -31.695312 26.699219 -31.121094 27.054688 -30.503906 Z M 7.382812 -30.8125 L 13.617188 -30.8125 L 13.617188 -31.960938 L 7.382812 -31.960938 Z M 7.382812 -28.558594 L 13.617188 -28.558594 L 13.617188 -29.707031 L 7.382812 -29.707031 Z M 26.082031 -24.667969 L 23.738281 -27.980469 L 20.203125 -28.027344 C 20.203125 -26.523438 20.070312 -25.328125 19.671875 -24.269531 L 19.628906 -29.265625 C 21.75 -29.308594 23.914062 -29 25.417969 -27.761719 C 25.773438 -26.964844 25.992188 -25.460938 26.082031 -24.667969 Z M 7.382812 -26.347656 L 13.617188 -26.347656 L 13.617188 -27.496094 L 7.382812 -27.496094 Z M 7.382812 -24.136719 L 13.617188 -24.136719 L 13.617188 -25.285156 L 7.382812 -25.285156 Z M 7.382812 -21.882812 L 13.617188 -21.882812 L 13.617188 -23.03125 L 7.382812 -23.03125 Z M 18.921875 -19.140625 L 21.128906 -19.140625 L 21.128906 -21.128906 C 20.644531 -20.335938 19.628906 -19.449219 18.921875 -19.140625 Z M 7.382812 -19.671875 L 13.617188 -19.671875 L 13.617188 -20.820312 L 7.382812 -20.820312 Z M 7.382812 -17.460938 L 13.617188 -17.460938 L 13.617188 -18.609375 L 7.382812 -18.609375 Z M 21.128906 -16.046875 L 21.128906 -17.949219 L 18.921875 -17.949219 C 19.582031 -17.683594 20.644531 -16.796875 21.128906 -16.046875 Z M 7.382812 -15.207031 L 13.617188 -15.207031 L 13.617188 -16.355469 L 7.382812 -16.355469 Z M 7.382812 -12.996094 L 13.617188 -12.996094 L 13.617188 -14.144531 L 7.382812 -14.144531 Z M 7.382812 -10.742188 L 13.570312 -10.742188 L 13.617188 -11.890625 L 7.382812 -11.890625 Z M 19.628906 -11.625 L 19.894531 -11.625 C 20.070312 -10.742188 20.113281 -9.8125 20.113281 -8.929688 L 22.765625 -5.347656 C 21.835938 -4.375 20.6875 -3.492188 19.671875 -3.007812 Z M 7.382812 -8.53125 L 13.570312 -8.53125 L 13.570312 -9.679688 L 7.382812 -9.679688 Z M 26.613281 -6.101562 L 27.496094 -6.101562 L 27.539062 -7.691406 C 27.273438 -7.160156 26.964844 -6.632812 26.613281 -6.101562 Z M 7.382812 -6.320312 L 13.570312 -6.320312 L 13.570312 -7.472656 L 7.382812 -7.472656 Z M 7.382812 -4.066406 L 13.570312 -4.066406 L 13.570312 -5.214844 L 7.382812 -5.214844 Z M 24.976562 -3.980469 L 27.40625 -3.980469 L 27.453125 -5.128906 L 25.90625 -5.128906 C 25.640625 -4.730469 25.328125 -4.332031 24.976562 -3.980469 Z M 7.027344 -1.855469 L 13.878906 -1.855469 C 13.746094 -2.210938 13.660156 -2.5625 13.617188 -3.007812 L 7.292969 -3.007812 C 7.25 -2.5625 7.160156 -2.167969 7.027344 -1.855469 Z M 22.765625 -1.855469 L 27.363281 -1.855469 L 27.40625 -3.007812 L 24.09375 -3.007812 C 23.648438 -2.609375 23.207031 -2.210938 22.765625 -1.855469 Z M 22.765625 -1.855469 "/></g></g></g><g fill="#4ca550" fill-opacity="0.4"><g transform="translate(191.612263, 178.42559)"><g><path d="M 24.445312 5.394531 L 32.890625 5.304688 L 33.066406 -28.246094 C 33.066406 -28.777344 33.199219 -28.867188 33.683594 -28.867188 L 36.160156 -28.867188 L 36.160156 -31.960938 L 32.136719 -36.957031 L 22.457031 -36.957031 L 22.457031 -33.863281 L 25.550781 -30.015625 L 25.550781 -20.6875 L 19.804688 -32.136719 L 15.914062 -36.957031 L 1.238281 -36.957031 L 1.238281 -33.863281 L 4.289062 -30.058594 L 4.199219 -4.066406 C 4.199219 -2.917969 4.066406 -2.785156 2.917969 -2.785156 L 1.0625 -2.785156 L 1.0625 0.308594 L 5.082031 5.347656 L 14.984375 5.347656 L 14.984375 1.679688 L 11.625 -2.785156 L 11.625 -17.726562 L 20.554688 0.53125 Z M 1.988281 0 L 1.988281 -1.855469 L 2.917969 -1.855469 C 4.773438 -1.855469 5.214844 -2.210938 5.214844 -4.066406 L 5.214844 -32.492188 C 5.214844 -33.90625 4.730469 -34.171875 3.050781 -34.171875 L 2.167969 -34.171875 L 2.167969 -36.027344 L 15.472656 -36.027344 L 26.480469 -14.234375 L 26.480469 -31.960938 C 26.480469 -33.90625 26.125 -34.171875 24.269531 -34.171875 L 23.386719 -34.171875 L 23.386719 -36.027344 L 31.695312 -36.027344 L 31.695312 -34.171875 L 30.8125 -34.171875 C 29.21875 -34.171875 28.691406 -33.90625 28.691406 -32.003906 L 28.425781 0 L 21.351562 0 L 7.117188 -29.085938 L 7.382812 -4.066406 C 7.425781 -2.253906 7.867188 -1.855469 9.59375 -1.855469 L 10.699219 -1.855469 L 10.699219 0 Z M 27.539062 -33.199219 C 27.71875 -33.550781 27.894531 -33.90625 28.160156 -34.257812 L 26.921875 -34.257812 C 27.1875 -33.90625 27.363281 -33.550781 27.539062 -33.199219 Z M 7.292969 -33.023438 L 14.941406 -33.023438 L 14.367188 -34.171875 L 6.675781 -34.171875 C 6.808594 -33.996094 6.894531 -33.816406 6.984375 -33.640625 Z M 8.355469 -30.8125 L 16.046875 -30.8125 L 15.472656 -31.960938 L 7.78125 -31.960938 Z M 9.460938 -28.601562 L 17.195312 -28.601562 L 16.621094 -29.75 L 8.886719 -29.75 Z M 10.519531 -26.347656 L 18.300781 -26.347656 L 17.726562 -27.496094 L 9.945312 -27.496094 Z M 11.625 -24.136719 L 19.449219 -24.136719 L 18.832031 -25.285156 L 11.050781 -25.285156 Z M 12.730469 -21.882812 L 20.554688 -21.882812 L 19.980469 -23.03125 L 12.15625 -23.03125 Z M 13.792969 -19.671875 L 21.660156 -19.671875 L 21.085938 -20.820312 L 13.21875 -20.820312 Z M 14.898438 -17.460938 L 22.808594 -17.460938 L 22.234375 -18.609375 L 14.324219 -18.609375 Z M 15.957031 -15.207031 L 23.914062 -15.207031 L 23.339844 -16.355469 L 15.382812 -16.355469 Z M 17.0625 -12.996094 L 25.066406 -12.996094 L 24.488281 -14.144531 L 16.488281 -14.144531 Z M 18.167969 -10.785156 L 26.167969 -10.785156 L 25.59375 -11.9375 L 17.59375 -11.9375 Z M 19.230469 -8.53125 L 26.613281 -8.53125 L 26.613281 -9.679688 L 18.65625 -9.679688 Z M 20.335938 -6.320312 L 26.613281 -6.320312 L 26.65625 -7.472656 L 19.761719 -7.472656 Z M 21.394531 -4.109375 L 26.613281 -4.109375 L 26.613281 -5.261719 L 20.820312 -5.261719 Z M 22.5 -1.855469 L 26.613281 -1.855469 L 26.613281 -3.007812 L 21.925781 -3.007812 Z M 5.570312 -1.8125 L 6.808594 -1.8125 C 6.542969 -2.167969 6.367188 -2.519531 6.1875 -2.875 C 6.011719 -2.519531 5.835938 -2.167969 5.570312 -1.8125 Z M 5.570312 -1.8125 "/></g></g></g><g fill="#4ca550" fill-opacity="0.4"><g transform="translate(228.651753, 178.42559)"><g><path d="M 5.082031 5.347656 L 33.597656 5.347656 L 34.125 -10.253906 L 30.058594 -15.296875 L 27.453125 -15.296875 L 27.453125 -21.925781 L 30.105469 -18.65625 L 33.375 -18.65625 L 33.375 -31.917969 L 29.351562 -36.957031 L 1.0625 -36.957031 L 1.0625 -33.863281 L 4.597656 -29.441406 L 4.597656 -4.066406 C 4.597656 -2.742188 4.640625 -2.785156 3.316406 -2.785156 L 1.0625 -2.785156 L 1.0625 0.308594 Z M 1.988281 0 L 1.988281 -1.855469 L 3.316406 -1.855469 C 5.171875 -1.855469 5.527344 -2.210938 5.527344 -4.066406 L 5.527344 -31.960938 C 5.527344 -33.816406 5.171875 -34.171875 3.316406 -34.171875 L 1.988281 -34.171875 L 1.988281 -36.027344 L 28.910156 -36.027344 L 28.910156 -24.179688 L 26.921875 -24.179688 C 26.921875 -30.679688 22.015625 -34.171875 16.84375 -34.257812 C 16.398438 -34.257812 15.472656 -34.214844 15.472656 -33.90625 L 15.472656 -19.449219 C 18.433594 -19.449219 20.996094 -22.675781 20.996094 -27.140625 L 22.988281 -27.140625 L 22.988281 -9.726562 L 20.996094 -9.726562 C 20.996094 -14.898438 18.433594 -17.59375 15.472656 -17.59375 L 15.429688 -4.066406 C 15.429688 -2.296875 15.78125 -1.636719 17.417969 -1.636719 C 22.765625 -1.636719 27.363281 -8.796875 27.628906 -14.367188 L 29.617188 -14.367188 L 29.175781 0 Z M 7.292969 -33.023438 L 13.617188 -33.023438 L 13.617188 -34.171875 L 7.027344 -34.171875 C 7.160156 -33.863281 7.25 -33.464844 7.292969 -33.023438 Z M 24.933594 -33.199219 L 27.054688 -33.199219 L 27.054688 -34.171875 L 23.648438 -34.171875 C 24.09375 -33.863281 24.535156 -33.550781 24.933594 -33.199219 Z M 27.054688 -30.503906 L 27.054688 -32.226562 L 25.859375 -32.226562 C 26.300781 -31.695312 26.699219 -31.121094 27.054688 -30.503906 Z M 7.382812 -30.8125 L 13.617188 -30.8125 L 13.617188 -31.960938 L 7.382812 -31.960938 Z M 7.382812 -28.558594 L 13.617188 -28.558594 L 13.617188 -29.707031 L 7.382812 -29.707031 Z M 26.082031 -24.667969 L 23.738281 -27.980469 L 20.203125 -28.027344 C 20.203125 -26.523438 20.070312 -25.328125 19.671875 -24.269531 L 19.628906 -29.265625 C 21.75 -29.308594 23.914062 -29 25.417969 -27.761719 C 25.773438 -26.964844 25.992188 -25.460938 26.082031 -24.667969 Z M 7.382812 -26.347656 L 13.617188 -26.347656 L 13.617188 -27.496094 L 7.382812 -27.496094 Z M 7.382812 -24.136719 L 13.617188 -24.136719 L 13.617188 -25.285156 L 7.382812 -25.285156 Z M 7.382812 -21.882812 L 13.617188 -21.882812 L 13.617188 -23.03125 L 7.382812 -23.03125 Z M 18.921875 -19.140625 L 21.128906 -19.140625 L 21.128906 -21.128906 C 20.644531 -20.335938 19.628906 -19.449219 18.921875 -19.140625 Z M 7.382812 -19.671875 L 13.617188 -19.671875 L 13.617188 -20.820312 L 7.382812 -20.820312 Z M 7.382812 -17.460938 L 13.617188 -17.460938 L 13.617188 -18.609375 L 7.382812 -18.609375 Z M 21.128906 -16.046875 L 21.128906 -17.949219 L 18.921875 -17.949219 C 19.582031 -17.683594 20.644531 -16.796875 21.128906 -16.046875 Z M 7.382812 -15.207031 L 13.617188 -15.207031 L 13.617188 -16.355469 L 7.382812 -16.355469 Z M 7.382812 -12.996094 L 13.617188 -12.996094 L 13.617188 -14.144531 L 7.382812 -14.144531 Z M 7.382812 -10.742188 L 13.570312 -10.742188 L 13.617188 -11.890625 L 7.382812 -11.890625 Z M 19.628906 -11.625 L 19.894531 -11.625 C 20.070312 -10.742188 20.113281 -9.8125 20.113281 -8.929688 L 22.765625 -5.347656 C 21.835938 -4.375 20.6875 -3.492188 19.671875 -3.007812 Z M 7.382812 -8.53125 L 13.570312 -8.53125 L 13.570312 -9.679688 L 7.382812 -9.679688 Z M 26.613281 -6.101562 L 27.496094 -6.101562 L 27.539062 -7.691406 C 27.273438 -7.160156 26.964844 -6.632812 26.613281 -6.101562 Z M 7.382812 -6.320312 L 13.570312 -6.320312 L 13.570312 -7.472656 L 7.382812 -7.472656 Z M 7.382812 -4.066406 L 13.570312 -4.066406 L 13.570312 -5.214844 L 7.382812 -5.214844 Z M 24.976562 -3.980469 L 27.40625 -3.980469 L 27.453125 -5.128906 L 25.90625 -5.128906 C 25.640625 -4.730469 25.328125 -4.332031 24.976562 -3.980469 Z M 7.027344 -1.855469 L 13.878906 -1.855469 C 13.746094 -2.210938 13.660156 -2.5625 13.617188 -3.007812 L 7.292969 -3.007812 C 7.25 -2.5625 7.160156 -2.167969 7.027344 -1.855469 Z M 22.765625 -1.855469 L 27.363281 -1.855469 L 27.40625 -3.007812 L 24.09375 -3.007812 C 23.648438 -2.609375 23.207031 -2.210938 22.765625 -1.855469 Z M 22.765625 -1.855469 "/></g></g></g><g fill="#4ca550" fill-opacity="0.4"><g transform="translate(265.337647, 178.42559)"><g><path d="M 19.628906 5.878906 C 26.746094 5.878906 31.828125 0.796875 31.828125 -6.5 C 31.828125 -9.679688 30.898438 -12.597656 29.042969 -14.675781 L 25.949219 -18.65625 C 23.121094 -22.28125 19.230469 -23.5625 16.179688 -25.417969 L 16.179688 -25.773438 C 16.179688 -27.761719 17.371094 -29.132812 19.449219 -29.132812 C 20.289062 -29.132812 21.085938 -28.953125 21.707031 -28.601562 C 22.28125 -27.097656 22.546875 -25.417969 22.546875 -23.515625 L 26.566406 -18.476562 L 29.882812 -18.476562 L 29.882812 -31.917969 L 25.859375 -36.957031 L 22.589844 -36.957031 C 22.589844 -35.71875 22.632812 -34.703125 22.324219 -34.703125 C 21.882812 -34.703125 19.316406 -37.574219 14.542969 -37.574219 C 7.601562 -37.574219 2.785156 -32.757812 2.785156 -25.773438 C 2.785156 -22.898438 3.625 -20.246094 5.082031 -18.476562 L 8.929688 -13.835938 C 11.09375 -11.226562 14.808594 -9.679688 17.195312 -8.089844 C 17.242188 -7.824219 17.285156 -7.515625 17.285156 -7.117188 C 17.285156 -4.730469 15.824219 -3.136719 13.703125 -3.136719 C 12.777344 -3.136719 11.804688 -3.449219 10.875 -4.066406 C 10.078125 -5.835938 9.636719 -7.867188 9.59375 -10.125 L 5.570312 -15.117188 L 2.386719 -15.117188 L 2.386719 0.308594 L 6.410156 5.347656 L 9.636719 5.347656 C 9.726562 3.136719 9.8125 2.828125 10.167969 2.828125 C 11.359375 2.828125 14.324219 5.878906 19.628906 5.878906 Z M 16.089844 0.53125 C 11.09375 0.53125 8.3125 -2.519531 6.542969 -2.519531 C 5.4375 -2.519531 5.304688 -1.371094 5.214844 0 L 3.316406 0 L 3.316406 -14.191406 L 5.128906 -14.191406 C 5.4375 -6.941406 9.726562 -2.210938 13.703125 -2.210938 C 15.957031 -2.210938 18.210938 -3.800781 18.210938 -7.117188 C 18.210938 -15.691406 3.714844 -13.96875 3.714844 -25.773438 C 3.714844 -32.800781 8.664062 -36.648438 14.542969 -36.648438 C 19.496094 -36.648438 21.128906 -33.773438 22.5 -33.773438 C 23.253906 -33.773438 23.429688 -34.65625 23.515625 -36.027344 L 25.417969 -36.027344 L 25.417969 -23.828125 L 23.472656 -23.828125 C 23.386719 -28.910156 20.734375 -34.480469 15.914062 -34.480469 C 13.351562 -34.480469 11.714844 -32.757812 11.714844 -30.015625 C 11.714844 -22.101562 27.363281 -23.914062 27.363281 -10.917969 C 27.363281 -2.917969 21.394531 0.53125 16.089844 0.53125 Z M 8.796875 -33.109375 L 10.652344 -33.109375 C 10.785156 -33.507812 11.226562 -34.082031 11.539062 -34.4375 C 10.566406 -34.171875 9.503906 -33.683594 8.796875 -33.109375 Z M 23.78125 -30.503906 L 23.78125 -32.578125 C 23.5625 -32.402344 23.03125 -32.316406 22.722656 -32.316406 C 23.03125 -31.828125 23.5625 -31.03125 23.78125 -30.503906 Z M 6.761719 -30.855469 L 9.992188 -30.855469 C 10.035156 -31.253906 10.078125 -31.652344 10.210938 -32.003906 L 7.601562 -32.003906 C 7.292969 -31.652344 7.027344 -31.253906 6.761719 -30.855469 Z M 5.878906 -28.601562 L 10.078125 -28.601562 C 10.035156 -28.953125 9.945312 -29.351562 9.945312 -29.75 L 6.234375 -29.75 C 6.054688 -29.398438 5.96875 -29 5.878906 -28.601562 Z M 5.527344 -26.300781 L 10.875 -26.300781 C 10.652344 -26.65625 10.519531 -27.054688 10.34375 -27.453125 L 5.613281 -27.453125 C 5.570312 -27.097656 5.527344 -26.699219 5.527344 -26.300781 Z M 5.660156 -24.046875 L 12.730469 -24.046875 C 12.332031 -24.402344 11.9375 -24.800781 11.625 -25.199219 L 5.527344 -25.199219 C 5.527344 -24.800781 5.570312 -24.402344 5.660156 -24.046875 Z M 6.5 -21.792969 L 16.179688 -21.792969 C 15.515625 -22.148438 14.808594 -22.546875 14.234375 -22.941406 L 5.96875 -22.941406 C 6.101562 -22.546875 6.277344 -22.148438 6.5 -21.792969 Z M 8.355469 -19.539062 L 20.246094 -19.539062 C 19.582031 -19.9375 18.875 -20.335938 18.210938 -20.6875 L 7.207031 -20.6875 C 7.558594 -20.289062 7.957031 -19.894531 8.355469 -19.539062 Z M 11.804688 -17.242188 L 23.207031 -17.242188 C 22.808594 -17.636719 22.367188 -18.035156 21.882812 -18.390625 L 9.859375 -18.390625 C 10.519531 -18.035156 11.183594 -17.636719 11.804688 -17.242188 Z M 15.558594 -14.984375 L 24.753906 -14.984375 C 24.578125 -15.382812 24.3125 -15.78125 24.046875 -16.136719 L 13.703125 -16.136719 C 14.324219 -15.78125 14.941406 -15.382812 15.558594 -14.984375 Z M 18.082031 -12.730469 L 25.460938 -12.730469 C 25.375 -13.128906 25.285156 -13.527344 25.152344 -13.878906 L 17.019531 -13.878906 C 17.417969 -13.527344 17.769531 -13.128906 18.082031 -12.730469 Z M 19.40625 -10.476562 L 25.59375 -10.476562 L 25.59375 -11.625 L 18.875 -11.625 C 19.097656 -11.273438 19.273438 -10.875 19.40625 -10.476562 Z M 19.9375 -8.222656 L 25.285156 -8.222656 C 25.375 -8.574219 25.460938 -8.972656 25.507812 -9.371094 L 19.761719 -9.371094 C 19.847656 -9.019531 19.894531 -8.621094 19.9375 -8.222656 Z M 19.894531 -5.921875 L 24.445312 -5.921875 C 24.621094 -6.277344 24.800781 -6.675781 24.933594 -7.074219 L 19.980469 -7.074219 C 19.980469 -6.675781 19.9375 -6.277344 19.894531 -5.921875 Z M 5.171875 -4.066406 C 5.527344 -4.242188 6.011719 -4.375 6.542969 -4.375 C 6.054688 -5.039062 5.570312 -5.789062 5.171875 -6.585938 Z M 19.183594 -3.667969 L 22.722656 -3.667969 C 23.121094 -4.023438 23.472656 -4.421875 23.78125 -4.820312 L 19.671875 -4.820312 C 19.539062 -4.421875 19.363281 -4.023438 19.183594 -3.667969 Z M 16.886719 -1.28125 C 18.609375 -1.414062 20.15625 -1.902344 21.261719 -2.5625 L 18.433594 -2.5625 C 18.082031 -2.121094 17.417969 -1.589844 16.886719 -1.28125 Z M 16.886719 -1.28125 "/></g></g></g><g fill="#4ca550" fill-opacity="0.4"><g transform="translate(298.841148, 178.42559)"><g><path d="M 5.128906 5.347656 L 23.472656 5.347656 L 23.472656 1.988281 L 19.847656 -2.785156 L 19.847656 -27.539062 C 19.847656 -28.867188 19.804688 -28.820312 21.21875 -28.820312 L 23.472656 -28.820312 L 23.472656 -31.917969 L 19.449219 -36.957031 L 1.0625 -36.957031 L 1.0625 -33.863281 L 4.640625 -29.441406 L 4.640625 -3.757812 C 4.640625 -2.828125 4.640625 -2.785156 3.359375 -2.785156 L 1.105469 -2.785156 L 1.105469 0.308594 Z M 2.035156 0 L 2.035156 -1.855469 L 3.359375 -1.855469 C 5.128906 -1.855469 5.570312 -2.210938 5.570312 -3.757812 L 5.570312 -31.960938 C 5.570312 -33.816406 5.171875 -34.171875 3.316406 -34.171875 L 1.988281 -34.171875 L 1.988281 -36.027344 L 19.007812 -36.027344 L 19.007812 -34.171875 L 17.683594 -34.171875 C 15.824219 -34.171875 15.472656 -33.816406 15.472656 -31.960938 L 15.472656 -4.066406 C 15.472656 -2.210938 15.824219 -1.855469 17.683594 -1.855469 L 19.007812 -1.855469 L 19.007812 0 Z M 7.339844 -33.023438 L 13.703125 -33.023438 C 13.746094 -33.464844 13.835938 -33.863281 13.96875 -34.171875 L 7.027344 -34.171875 C 7.160156 -33.863281 7.292969 -33.464844 7.339844 -33.023438 Z M 7.382812 -30.8125 L 13.617188 -30.8125 L 13.617188 -31.960938 L 7.382812 -31.960938 Z M 7.382812 -28.601562 L 13.617188 -28.601562 L 13.617188 -29.75 L 7.382812 -29.75 Z M 7.382812 -26.347656 L 13.617188 -26.347656 L 13.617188 -27.496094 L 7.382812 -27.496094 Z M 7.382812 -24.136719 L 13.617188 -24.136719 L 13.617188 -25.285156 L 7.382812 -25.285156 Z M 7.382812 -21.882812 L 13.617188 -21.882812 L 13.617188 -23.03125 L 7.382812 -23.03125 Z M 7.382812 -19.671875 L 13.617188 -19.671875 L 13.617188 -20.820312 L 7.382812 -20.820312 Z M 7.382812 -17.460938 L 13.617188 -17.460938 L 13.617188 -18.609375 L 7.382812 -18.609375 Z M 7.382812 -15.207031 L 13.617188 -15.207031 L 13.617188 -16.355469 L 7.382812 -16.355469 Z M 7.382812 -12.996094 L 13.617188 -12.996094 L 13.617188 -14.144531 L 7.382812 -14.144531 Z M 7.382812 -10.785156 L 13.617188 -10.785156 L 13.617188 -11.9375 L 7.382812 -11.9375 Z M 7.382812 -8.53125 L 13.617188 -8.53125 L 13.617188 -9.679688 L 7.382812 -9.679688 Z M 7.382812 -6.320312 L 13.617188 -6.320312 L 13.617188 -7.472656 L 7.382812 -7.472656 Z M 7.382812 -4.109375 L 13.617188 -4.109375 L 13.617188 -5.261719 L 7.382812 -5.261719 Z M 7.027344 -1.855469 L 13.96875 -1.855469 C 13.835938 -2.210938 13.746094 -2.5625 13.703125 -3.007812 L 7.339844 -3.007812 C 7.292969 -2.5625 7.160156 -2.210938 7.027344 -1.855469 Z M 7.027344 -1.855469 "/></g></g></g><g fill="#4ca550" fill-opacity="0.4"><g transform="translate(323.372074, 178.42559)"><g><path d="M 19.628906 5.878906 C 26.746094 5.878906 31.828125 0.796875 31.828125 -6.5 C 31.828125 -9.679688 30.898438 -12.597656 29.042969 -14.675781 L 25.949219 -18.65625 C 23.121094 -22.28125 19.230469 -23.5625 16.179688 -25.417969 L 16.179688 -25.773438 C 16.179688 -27.761719 17.371094 -29.132812 19.449219 -29.132812 C 20.289062 -29.132812 21.085938 -28.953125 21.707031 -28.601562 C 22.28125 -27.097656 22.546875 -25.417969 22.546875 -23.515625 L 26.566406 -18.476562 L 29.882812 -18.476562 L 29.882812 -31.917969 L 25.859375 -36.957031 L 22.589844 -36.957031 C 22.589844 -35.71875 22.632812 -34.703125 22.324219 -34.703125 C 21.882812 -34.703125 19.316406 -37.574219 14.542969 -37.574219 C 7.601562 -37.574219 2.785156 -32.757812 2.785156 -25.773438 C 2.785156 -22.898438 3.625 -20.246094 5.082031 -18.476562 L 8.929688 -13.835938 C 11.09375 -11.226562 14.808594 -9.679688 17.195312 -8.089844 C 17.242188 -7.824219 17.285156 -7.515625 17.285156 -7.117188 C 17.285156 -4.730469 15.824219 -3.136719 13.703125 -3.136719 C 12.777344 -3.136719 11.804688 -3.449219 10.875 -4.066406 C 10.078125 -5.835938 9.636719 -7.867188 9.59375 -10.125 L 5.570312 -15.117188 L 2.386719 -15.117188 L 2.386719 0.308594 L 6.410156 5.347656 L 9.636719 5.347656 C 9.726562 3.136719 9.8125 2.828125 10.167969 2.828125 C 11.359375 2.828125 14.324219 5.878906 19.628906 5.878906 Z M 16.089844 0.53125 C 11.09375 0.53125 8.3125 -2.519531 6.542969 -2.519531 C 5.4375 -2.519531 5.304688 -1.371094 5.214844 0 L 3.316406 0 L 3.316406 -14.191406 L 5.128906 -14.191406 C 5.4375 -6.941406 9.726562 -2.210938 13.703125 -2.210938 C 15.957031 -2.210938 18.210938 -3.800781 18.210938 -7.117188 C 18.210938 -15.691406 3.714844 -13.96875 3.714844 -25.773438 C 3.714844 -32.800781 8.664062 -36.648438 14.542969 -36.648438 C 19.496094 -36.648438 21.128906 -33.773438 22.5 -33.773438 C 23.253906 -33.773438 23.429688 -34.65625 23.515625 -36.027344 L 25.417969 -36.027344 L 25.417969 -23.828125 L 23.472656 -23.828125 C 23.386719 -28.910156 20.734375 -34.480469 15.914062 -34.480469 C 13.351562 -34.480469 11.714844 -32.757812 11.714844 -30.015625 C 11.714844 -22.101562 27.363281 -23.914062 27.363281 -10.917969 C 27.363281 -2.917969 21.394531 0.53125 16.089844 0.53125 Z M 8.796875 -33.109375 L 10.652344 -33.109375 C 10.785156 -33.507812 11.226562 -34.082031 11.539062 -34.4375 C 10.566406 -34.171875 9.503906 -33.683594 8.796875 -33.109375 Z M 23.78125 -30.503906 L 23.78125 -32.578125 C 23.5625 -32.402344 23.03125 -32.316406 22.722656 -32.316406 C 23.03125 -31.828125 23.5625 -31.03125 23.78125 -30.503906 Z M 6.761719 -30.855469 L 9.992188 -30.855469 C 10.035156 -31.253906 10.078125 -31.652344 10.210938 -32.003906 L 7.601562 -32.003906 C 7.292969 -31.652344 7.027344 -31.253906 6.761719 -30.855469 Z M 5.878906 -28.601562 L 10.078125 -28.601562 C 10.035156 -28.953125 9.945312 -29.351562 9.945312 -29.75 L 6.234375 -29.75 C 6.054688 -29.398438 5.96875 -29 5.878906 -28.601562 Z M 5.527344 -26.300781 L 10.875 -26.300781 C 10.652344 -26.65625 10.519531 -27.054688 10.34375 -27.453125 L 5.613281 -27.453125 C 5.570312 -27.097656 5.527344 -26.699219 5.527344 -26.300781 Z M 5.660156 -24.046875 L 12.730469 -24.046875 C 12.332031 -24.402344 11.9375 -24.800781 11.625 -25.199219 L 5.527344 -25.199219 C 5.527344 -24.800781 5.570312 -24.402344 5.660156 -24.046875 Z M 6.5 -21.792969 L 16.179688 -21.792969 C 15.515625 -22.148438 14.808594 -22.546875 14.234375 -22.941406 L 5.96875 -22.941406 C 6.101562 -22.546875 6.277344 -22.148438 6.5 -21.792969 Z M 8.355469 -19.539062 L 20.246094 -19.539062 C 19.582031 -19.9375 18.875 -20.335938 18.210938 -20.6875 L 7.207031 -20.6875 C 7.558594 -20.289062 7.957031 -19.894531 8.355469 -19.539062 Z M 11.804688 -17.242188 L 23.207031 -17.242188 C 22.808594 -17.636719 22.367188 -18.035156 21.882812 -18.390625 L 9.859375 -18.390625 C 10.519531 -18.035156 11.183594 -17.636719 11.804688 -17.242188 Z M 15.558594 -14.984375 L 24.753906 -14.984375 C 24.578125 -15.382812 24.3125 -15.78125 24.046875 -16.136719 L 13.703125 -16.136719 C 14.324219 -15.78125 14.941406 -15.382812 15.558594 -14.984375 Z M 18.082031 -12.730469 L 25.460938 -12.730469 C 25.375 -13.128906 25.285156 -13.527344 25.152344 -13.878906 L 17.019531 -13.878906 C 17.417969 -13.527344 17.769531 -13.128906 18.082031 -12.730469 Z M 19.40625 -10.476562 L 25.59375 -10.476562 L 25.59375 -11.625 L 18.875 -11.625 C 19.097656 -11.273438 19.273438 -10.875 19.40625 -10.476562 Z M 19.9375 -8.222656 L 25.285156 -8.222656 C 25.375 -8.574219 25.460938 -8.972656 25.507812 -9.371094 L 19.761719 -9.371094 C 19.847656 -9.019531 19.894531 -8.621094 19.9375 -8.222656 Z M 19.894531 -5.921875 L 24.445312 -5.921875 C 24.621094 -6.277344 24.800781 -6.675781 24.933594 -7.074219 L 19.980469 -7.074219 C 19.980469 -6.675781 19.9375 -6.277344 19.894531 -5.921875 Z M 5.171875 -4.066406 C 5.527344 -4.242188 6.011719 -4.375 6.542969 -4.375 C 6.054688 -5.039062 5.570312 -5.789062 5.171875 -6.585938 Z M 19.183594 -3.667969 L 22.722656 -3.667969 C 23.121094 -4.023438 23.472656 -4.421875 23.78125 -4.820312 L 19.671875 -4.820312 C 19.539062 -4.421875 19.363281 -4.023438 19.183594 -3.667969 Z M 16.886719 -1.28125 C 18.609375 -1.414062 20.15625 -1.902344 21.261719 -2.5625 L 18.433594 -2.5625 C 18.082031 -2.121094 17.417969 -1.589844 16.886719 -1.28125 Z M 16.886719 -1.28125 "/></g></g></g><g fill="#4ca550" fill-opacity="1"><g transform="translate(114.607091, 176.471781)"><g><path d="M 36.382812 6.144531 L 36.601562 2.34375 L 33.773438 -1.195312 L 33.773438 -8.839844 C 33.773438 -8.929688 33.816406 -8.972656 33.949219 -8.972656 L 36.867188 -9.285156 L 36.867188 -12.113281 L 32.84375 -17.152344 L 17.152344 -17.152344 C 17.503906 -25.328125 19.140625 -29.132812 22.015625 -29.132812 C 23.164062 -29.132812 24.179688 -28.867188 25.152344 -28.292969 C 25.816406 -26.746094 26.214844 -25.019531 26.433594 -22.589844 L 30.414062 -17.59375 L 33.640625 -17.59375 L 33.640625 -32.09375 L 29.617188 -37.132812 L 26.433594 -37.132812 C 26.347656 -35.230469 26.257812 -34.746094 26.082031 -34.746094 C 25.199219 -34.746094 22.898438 -37.488281 17.195312 -37.488281 C 7.25 -37.488281 0.972656 -30.015625 0.972656 -18.125 C 0.972656 -11.9375 2.652344 -6.632812 5.660156 -3.226562 L 8.488281 0.308594 C 11.359375 3.933594 15.25 6.054688 20.113281 6.054688 C 24.535156 6.054688 28.203125 4.421875 31.253906 4.421875 C 33.109375 4.421875 34.523438 5.082031 36.382812 6.144531 Z M 16.578125 0.707031 C 7.425781 0.707031 1.902344 -6.851562 1.902344 -18.125 C 1.902344 -31.03125 9.152344 -36.558594 17.195312 -36.558594 C 22.457031 -36.558594 24.800781 -33.773438 26.082031 -33.816406 C 26.964844 -33.816406 27.1875 -34.613281 27.320312 -36.203125 L 29.175781 -36.203125 L 29.175781 -22.941406 L 27.320312 -22.941406 C 26.613281 -30.589844 22.855469 -34.480469 18.476562 -34.480469 C 14.277344 -34.480469 12.644531 -28.691406 12.644531 -18.566406 C 12.644531 -8.707031 12.730469 -1.28125 18.167969 -1.28125 C 18.65625 -1.28125 19.140625 -1.371094 19.628906 -1.457031 L 19.628906 -13.261719 C 19.628906 -13.878906 19.316406 -14.234375 18.699219 -14.324219 L 16.398438 -14.589844 L 16.398438 -16.222656 L 32.402344 -16.222656 L 32.402344 -14.542969 L 30.191406 -14.324219 C 29.617188 -14.234375 29.308594 -13.878906 29.308594 -13.261719 L 29.308594 -3.007812 C 30.457031 -2.695312 31.429688 -2.210938 32.136719 -1.769531 L 32.003906 0.265625 C 30.722656 -0.484375 29.398438 -0.929688 27.71875 -0.929688 C 24.488281 -0.929688 20.820312 0.707031 16.578125 0.707031 Z M 10.785156 -33.199219 L 13.261719 -33.199219 C 13.527344 -33.640625 13.878906 -34.082031 14.144531 -34.4375 C 12.863281 -34.125 11.847656 -33.773438 10.785156 -33.199219 Z M 27.496094 -30.28125 L 27.496094 -32.535156 C 27.230469 -32.316406 26.789062 -32.226562 26.480469 -32.226562 L 26.347656 -32.226562 C 26.789062 -31.695312 27.1875 -30.945312 27.496094 -30.28125 Z M 7.867188 -30.988281 L 12.246094 -30.988281 C 12.378906 -31.386719 12.511719 -31.738281 12.6875 -32.136719 L 9.152344 -32.136719 C 8.707031 -31.785156 8.265625 -31.386719 7.867188 -30.988281 Z M 6.234375 -28.734375 L 11.625 -28.734375 C 11.714844 -29.132812 11.847656 -29.484375 11.9375 -29.882812 L 6.984375 -29.882812 C 6.71875 -29.53125 6.453125 -29.132812 6.234375 -28.734375 Z M 5.128906 -26.480469 L 11.226562 -26.480469 C 11.273438 -26.878906 11.359375 -27.273438 11.40625 -27.628906 L 5.613281 -27.628906 C 5.4375 -27.273438 5.261719 -26.878906 5.128906 -26.480469 Z M 4.421875 -24.226562 L 10.964844 -24.226562 L 11.09375 -25.375 L 4.730469 -25.375 C 4.640625 -25.019531 4.507812 -24.621094 4.421875 -24.226562 Z M 3.980469 -21.96875 L 10.832031 -21.96875 C 10.875 -22.367188 10.875 -22.765625 10.917969 -23.121094 L 4.199219 -23.121094 C 4.109375 -22.765625 4.066406 -22.367188 3.980469 -21.96875 Z M 3.757812 -19.761719 L 10.785156 -19.761719 L 10.785156 -20.910156 L 3.847656 -20.910156 C 3.847656 -20.511719 3.800781 -20.113281 3.757812 -19.761719 Z M 3.757812 -17.503906 L 10.785156 -17.503906 L 10.785156 -18.65625 L 3.757812 -18.65625 Z M 3.890625 -15.25 L 10.785156 -15.25 L 10.785156 -16.398438 L 3.800781 -16.398438 C 3.847656 -16.003906 3.847656 -15.648438 3.890625 -15.25 Z M 4.199219 -12.996094 L 10.832031 -12.996094 C 10.832031 -13.394531 10.785156 -13.792969 10.785156 -14.144531 L 3.980469 -14.144531 Z M 21.484375 -12.996094 L 27.453125 -12.996094 L 27.453125 -13.304688 C 27.453125 -13.617188 27.496094 -13.878906 27.585938 -14.144531 L 21.351562 -14.144531 C 21.441406 -13.878906 21.484375 -13.617188 21.484375 -13.304688 Z M 17.769531 -2.210938 C 17.152344 -5.082031 17.109375 -9.019531 17.109375 -13.570312 L 18.523438 -13.4375 C 18.65625 -13.394531 18.699219 -13.351562 18.699219 -13.21875 L 18.699219 -2.253906 C 18.523438 -2.210938 18.035156 -2.210938 17.769531 -2.210938 Z M 4.730469 -10.742188 L 10.964844 -10.742188 C 10.917969 -11.140625 10.917969 -11.539062 10.875 -11.890625 L 4.421875 -11.890625 C 4.507812 -11.539062 4.640625 -11.140625 4.730469 -10.742188 Z M 21.484375 -10.742188 L 27.453125 -10.742188 L 27.453125 -11.890625 L 21.484375 -11.890625 Z M 5.570312 -8.53125 L 11.140625 -8.53125 L 11.007812 -9.679688 L 5.082031 -9.679688 C 5.214844 -9.285156 5.394531 -8.886719 5.570312 -8.53125 Z M 21.484375 -8.53125 L 27.453125 -8.53125 L 27.453125 -9.679688 L 21.484375 -9.679688 Z M 6.808594 -6.277344 L 11.492188 -6.277344 C 11.449219 -6.632812 11.359375 -7.027344 11.316406 -7.425781 L 6.101562 -7.425781 C 6.320312 -7.027344 6.542969 -6.632812 6.808594 -6.277344 Z M 21.484375 -6.277344 L 27.453125 -6.277344 L 27.453125 -7.425781 L 21.484375 -7.425781 Z M 8.796875 -4.023438 L 12.15625 -4.023438 C 12.023438 -4.375 11.890625 -4.773438 11.804688 -5.171875 L 7.648438 -5.171875 C 8 -4.773438 8.398438 -4.375 8.796875 -4.023438 Z M 21.484375 -4.023438 L 27.453125 -4.023438 L 27.453125 -5.171875 L 21.484375 -5.171875 Z M 13.617188 -1.414062 C 13.351562 -1.769531 12.820312 -2.519531 12.644531 -2.917969 L 10.210938 -2.917969 C 11.09375 -2.386719 11.980469 -1.945312 13.617188 -1.414062 Z M 21.484375 -1.8125 C 23.5625 -2.296875 25.460938 -2.652344 27.453125 -2.695312 L 27.453125 -2.917969 L 21.484375 -2.917969 Z M 21.484375 -1.8125 "/></g></g></g><g fill="#4ca550" fill-opacity="1"><g transform="translate(152.972575, 176.471781)"><g><path d="M 5.082031 5.347656 L 33.597656 5.347656 L 34.125 -10.253906 L 30.058594 -15.296875 L 27.453125 -15.296875 L 27.453125 -21.925781 L 30.105469 -18.65625 L 33.375 -18.65625 L 33.375 -31.917969 L 29.351562 -36.957031 L 1.0625 -36.957031 L 1.0625 -33.863281 L 4.597656 -29.441406 L 4.597656 -4.066406 C 4.597656 -2.742188 4.640625 -2.785156 3.316406 -2.785156 L 1.0625 -2.785156 L 1.0625 0.308594 Z M 1.988281 0 L 1.988281 -1.855469 L 3.316406 -1.855469 C 5.171875 -1.855469 5.527344 -2.210938 5.527344 -4.066406 L 5.527344 -31.960938 C 5.527344 -33.816406 5.171875 -34.171875 3.316406 -34.171875 L 1.988281 -34.171875 L 1.988281 -36.027344 L 28.910156 -36.027344 L 28.910156 -24.179688 L 26.921875 -24.179688 C 26.921875 -30.679688 22.015625 -34.171875 16.84375 -34.257812 C 16.398438 -34.257812 15.472656 -34.214844 15.472656 -33.90625 L 15.472656 -19.449219 C 18.433594 -19.449219 20.996094 -22.675781 20.996094 -27.140625 L 22.988281 -27.140625 L 22.988281 -9.726562 L 20.996094 -9.726562 C 20.996094 -14.898438 18.433594 -17.59375 15.472656 -17.59375 L 15.429688 -4.066406 C 15.429688 -2.296875 15.78125 -1.636719 17.417969 -1.636719 C 22.765625 -1.636719 27.363281 -8.796875 27.628906 -14.367188 L 29.617188 -14.367188 L 29.175781 0 Z M 7.292969 -33.023438 L 13.617188 -33.023438 L 13.617188 -34.171875 L 7.027344 -34.171875 C 7.160156 -33.863281 7.25 -33.464844 7.292969 -33.023438 Z M 24.933594 -33.199219 L 27.054688 -33.199219 L 27.054688 -34.171875 L 23.648438 -34.171875 C 24.09375 -33.863281 24.535156 -33.550781 24.933594 -33.199219 Z M 27.054688 -30.503906 L 27.054688 -32.226562 L 25.859375 -32.226562 C 26.300781 -31.695312 26.699219 -31.121094 27.054688 -30.503906 Z M 7.382812 -30.8125 L 13.617188 -30.8125 L 13.617188 -31.960938 L 7.382812 -31.960938 Z M 7.382812 -28.558594 L 13.617188 -28.558594 L 13.617188 -29.707031 L 7.382812 -29.707031 Z M 26.082031 -24.667969 L 23.738281 -27.980469 L 20.203125 -28.027344 C 20.203125 -26.523438 20.070312 -25.328125 19.671875 -24.269531 L 19.628906 -29.265625 C 21.75 -29.308594 23.914062 -29 25.417969 -27.761719 C 25.773438 -26.964844 25.992188 -25.460938 26.082031 -24.667969 Z M 7.382812 -26.347656 L 13.617188 -26.347656 L 13.617188 -27.496094 L 7.382812 -27.496094 Z M 7.382812 -24.136719 L 13.617188 -24.136719 L 13.617188 -25.285156 L 7.382812 -25.285156 Z M 7.382812 -21.882812 L 13.617188 -21.882812 L 13.617188 -23.03125 L 7.382812 -23.03125 Z M 18.921875 -19.140625 L 21.128906 -19.140625 L 21.128906 -21.128906 C 20.644531 -20.335938 19.628906 -19.449219 18.921875 -19.140625 Z M 7.382812 -19.671875 L 13.617188 -19.671875 L 13.617188 -20.820312 L 7.382812 -20.820312 Z M 7.382812 -17.460938 L 13.617188 -17.460938 L 13.617188 -18.609375 L 7.382812 -18.609375 Z M 21.128906 -16.046875 L 21.128906 -17.949219 L 18.921875 -17.949219 C 19.582031 -17.683594 20.644531 -16.796875 21.128906 -16.046875 Z M 7.382812 -15.207031 L 13.617188 -15.207031 L 13.617188 -16.355469 L 7.382812 -16.355469 Z M 7.382812 -12.996094 L 13.617188 -12.996094 L 13.617188 -14.144531 L 7.382812 -14.144531 Z M 7.382812 -10.742188 L 13.570312 -10.742188 L 13.617188 -11.890625 L 7.382812 -11.890625 Z M 19.628906 -11.625 L 19.894531 -11.625 C 20.070312 -10.742188 20.113281 -9.8125 20.113281 -8.929688 L 22.765625 -5.347656 C 21.835938 -4.375 20.6875 -3.492188 19.671875 -3.007812 Z M 7.382812 -8.53125 L 13.570312 -8.53125 L 13.570312 -9.679688 L 7.382812 -9.679688 Z M 26.613281 -6.101562 L 27.496094 -6.101562 L 27.539062 -7.691406 C 27.273438 -7.160156 26.964844 -6.632812 26.613281 -6.101562 Z M 7.382812 -6.320312 L 13.570312 -6.320312 L 13.570312 -7.472656 L 7.382812 -7.472656 Z M 7.382812 -4.066406 L 13.570312 -4.066406 L 13.570312 -5.214844 L 7.382812 -5.214844 Z M 24.976562 -3.980469 L 27.40625 -3.980469 L 27.453125 -5.128906 L 25.90625 -5.128906 C 25.640625 -4.730469 25.328125 -4.332031 24.976562 -3.980469 Z M 7.027344 -1.855469 L 13.878906 -1.855469 C 13.746094 -2.210938 13.660156 -2.5625 13.617188 -3.007812 L 7.292969 -3.007812 C 7.25 -2.5625 7.160156 -2.167969 7.027344 -1.855469 Z M 22.765625 -1.855469 L 27.363281 -1.855469 L 27.40625 -3.007812 L 24.09375 -3.007812 C 23.648438 -2.609375 23.207031 -2.210938 22.765625 -1.855469 Z M 22.765625 -1.855469 "/></g></g></g><g fill="#4ca550" fill-opacity="1"><g transform="translate(189.658462, 176.471781)"><g><path d="M 24.445312 5.394531 L 32.890625 5.304688 L 33.066406 -28.246094 C 33.066406 -28.777344 33.199219 -28.867188 33.683594 -28.867188 L 36.160156 -28.867188 L 36.160156 -31.960938 L 32.136719 -36.957031 L 22.457031 -36.957031 L 22.457031 -33.863281 L 25.550781 -30.015625 L 25.550781 -20.6875 L 19.804688 -32.136719 L 15.914062 -36.957031 L 1.238281 -36.957031 L 1.238281 -33.863281 L 4.289062 -30.058594 L 4.199219 -4.066406 C 4.199219 -2.917969 4.066406 -2.785156 2.917969 -2.785156 L 1.0625 -2.785156 L 1.0625 0.308594 L 5.082031 5.347656 L 14.984375 5.347656 L 14.984375 1.679688 L 11.625 -2.785156 L 11.625 -17.726562 L 20.554688 0.53125 Z M 1.988281 0 L 1.988281 -1.855469 L 2.917969 -1.855469 C 4.773438 -1.855469 5.214844 -2.210938 5.214844 -4.066406 L 5.214844 -32.492188 C 5.214844 -33.90625 4.730469 -34.171875 3.050781 -34.171875 L 2.167969 -34.171875 L 2.167969 -36.027344 L 15.472656 -36.027344 L 26.480469 -14.234375 L 26.480469 -31.960938 C 26.480469 -33.90625 26.125 -34.171875 24.269531 -34.171875 L 23.386719 -34.171875 L 23.386719 -36.027344 L 31.695312 -36.027344 L 31.695312 -34.171875 L 30.8125 -34.171875 C 29.21875 -34.171875 28.691406 -33.90625 28.691406 -32.003906 L 28.425781 0 L 21.351562 0 L 7.117188 -29.085938 L 7.382812 -4.066406 C 7.425781 -2.253906 7.867188 -1.855469 9.59375 -1.855469 L 10.699219 -1.855469 L 10.699219 0 Z M 27.539062 -33.199219 C 27.71875 -33.550781 27.894531 -33.90625 28.160156 -34.257812 L 26.921875 -34.257812 C 27.1875 -33.90625 27.363281 -33.550781 27.539062 -33.199219 Z M 7.292969 -33.023438 L 14.941406 -33.023438 L 14.367188 -34.171875 L 6.675781 -34.171875 C 6.808594 -33.996094 6.894531 -33.816406 6.984375 -33.640625 Z M 8.355469 -30.8125 L 16.046875 -30.8125 L 15.472656 -31.960938 L 7.78125 -31.960938 Z M 9.460938 -28.601562 L 17.195312 -28.601562 L 16.621094 -29.75 L 8.886719 -29.75 Z M 10.519531 -26.347656 L 18.300781 -26.347656 L 17.726562 -27.496094 L 9.945312 -27.496094 Z M 11.625 -24.136719 L 19.449219 -24.136719 L 18.832031 -25.285156 L 11.050781 -25.285156 Z M 12.730469 -21.882812 L 20.554688 -21.882812 L 19.980469 -23.03125 L 12.15625 -23.03125 Z M 13.792969 -19.671875 L 21.660156 -19.671875 L 21.085938 -20.820312 L 13.21875 -20.820312 Z M 14.898438 -17.460938 L 22.808594 -17.460938 L 22.234375 -18.609375 L 14.324219 -18.609375 Z M 15.957031 -15.207031 L 23.914062 -15.207031 L 23.339844 -16.355469 L 15.382812 -16.355469 Z M 17.0625 -12.996094 L 25.066406 -12.996094 L 24.488281 -14.144531 L 16.488281 -14.144531 Z M 18.167969 -10.785156 L 26.167969 -10.785156 L 25.59375 -11.9375 L 17.59375 -11.9375 Z M 19.230469 -8.53125 L 26.613281 -8.53125 L 26.613281 -9.679688 L 18.65625 -9.679688 Z M 20.335938 -6.320312 L 26.613281 -6.320312 L 26.65625 -7.472656 L 19.761719 -7.472656 Z M 21.394531 -4.109375 L 26.613281 -4.109375 L 26.613281 -5.261719 L 20.820312 -5.261719 Z M 22.5 -1.855469 L 26.613281 -1.855469 L 26.613281 -3.007812 L 21.925781 -3.007812 Z M 5.570312 -1.8125 L 6.808594 -1.8125 C 6.542969 -2.167969 6.367188 -2.519531 6.1875 -2.875 C 6.011719 -2.519531 5.835938 -2.167969 5.570312 -1.8125 Z M 5.570312 -1.8125 "/></g></g></g><g fill="#4ca550" fill-opacity="1"><g transform="translate(226.697951, 176.471781)"><g><path d="M 5.082031 5.347656 L 33.597656 5.347656 L 34.125 -10.253906 L 30.058594 -15.296875 L 27.453125 -15.296875 L 27.453125 -21.925781 L 30.105469 -18.65625 L 33.375 -18.65625 L 33.375 -31.917969 L 29.351562 -36.957031 L 1.0625 -36.957031 L 1.0625 -33.863281 L 4.597656 -29.441406 L 4.597656 -4.066406 C 4.597656 -2.742188 4.640625 -2.785156 3.316406 -2.785156 L 1.0625 -2.785156 L 1.0625 0.308594 Z M 1.988281 0 L 1.988281 -1.855469 L 3.316406 -1.855469 C 5.171875 -1.855469 5.527344 -2.210938 5.527344 -4.066406 L 5.527344 -31.960938 C 5.527344 -33.816406 5.171875 -34.171875 3.316406 -34.171875 L 1.988281 -34.171875 L 1.988281 -36.027344 L 28.910156 -36.027344 L 28.910156 -24.179688 L 26.921875 -24.179688 C 26.921875 -30.679688 22.015625 -34.171875 16.84375 -34.257812 C 16.398438 -34.257812 15.472656 -34.214844 15.472656 -33.90625 L 15.472656 -19.449219 C 18.433594 -19.449219 20.996094 -22.675781 20.996094 -27.140625 L 22.988281 -27.140625 L 22.988281 -9.726562 L 20.996094 -9.726562 C 20.996094 -14.898438 18.433594 -17.59375 15.472656 -17.59375 L 15.429688 -4.066406 C 15.429688 -2.296875 15.78125 -1.636719 17.417969 -1.636719 C 22.765625 -1.636719 27.363281 -8.796875 27.628906 -14.367188 L 29.617188 -14.367188 L 29.175781 0 Z M 7.292969 -33.023438 L 13.617188 -33.023438 L 13.617188 -34.171875 L 7.027344 -34.171875 C 7.160156 -33.863281 7.25 -33.464844 7.292969 -33.023438 Z M 24.933594 -33.199219 L 27.054688 -33.199219 L 27.054688 -34.171875 L 23.648438 -34.171875 C 24.09375 -33.863281 24.535156 -33.550781 24.933594 -33.199219 Z M 27.054688 -30.503906 L 27.054688 -32.226562 L 25.859375 -32.226562 C 26.300781 -31.695312 26.699219 -31.121094 27.054688 -30.503906 Z M 7.382812 -30.8125 L 13.617188 -30.8125 L 13.617188 -31.960938 L 7.382812 -31.960938 Z M 7.382812 -28.558594 L 13.617188 -28.558594 L 13.617188 -29.707031 L 7.382812 -29.707031 Z M 26.082031 -24.667969 L 23.738281 -27.980469 L 20.203125 -28.027344 C 20.203125 -26.523438 20.070312 -25.328125 19.671875 -24.269531 L 19.628906 -29.265625 C 21.75 -29.308594 23.914062 -29 25.417969 -27.761719 C 25.773438 -26.964844 25.992188 -25.460938 26.082031 -24.667969 Z M 7.382812 -26.347656 L 13.617188 -26.347656 L 13.617188 -27.496094 L 7.382812 -27.496094 Z M 7.382812 -24.136719 L 13.617188 -24.136719 L 13.617188 -25.285156 L 7.382812 -25.285156 Z M 7.382812 -21.882812 L 13.617188 -21.882812 L 13.617188 -23.03125 L 7.382812 -23.03125 Z M 18.921875 -19.140625 L 21.128906 -19.140625 L 21.128906 -21.128906 C 20.644531 -20.335938 19.628906 -19.449219 18.921875 -19.140625 Z M 7.382812 -19.671875 L 13.617188 -19.671875 L 13.617188 -20.820312 L 7.382812 -20.820312 Z M 7.382812 -17.460938 L 13.617188 -17.460938 L 13.617188 -18.609375 L 7.382812 -18.609375 Z M 21.128906 -16.046875 L 21.128906 -17.949219 L 18.921875 -17.949219 C 19.582031 -17.683594 20.644531 -16.796875 21.128906 -16.046875 Z M 7.382812 -15.207031 L 13.617188 -15.207031 L 13.617188 -16.355469 L 7.382812 -16.355469 Z M 7.382812 -12.996094 L 13.617188 -12.996094 L 13.617188 -14.144531 L 7.382812 -14.144531 Z M 7.382812 -10.742188 L 13.570312 -10.742188 L 13.617188 -11.890625 L 7.382812 -11.890625 Z M 19.628906 -11.625 L 19.894531 -11.625 C 20.070312 -10.742188 20.113281 -9.8125 20.113281 -8.929688 L 22.765625 -5.347656 C 21.835938 -4.375 20.6875 -3.492188 19.671875 -3.007812 Z M 7.382812 -8.53125 L 13.570312 -8.53125 L 13.570312 -9.679688 L 7.382812 -9.679688 Z M 26.613281 -6.101562 L 27.496094 -6.101562 L 27.539062 -7.691406 C 27.273438 -7.160156 26.964844 -6.632812 26.613281 -6.101562 Z M 7.382812 -6.320312 L 13.570312 -6.320312 L 13.570312 -7.472656 L 7.382812 -7.472656 Z M 7.382812 -4.066406 L 13.570312 -4.066406 L 13.570312 -5.214844 L 7.382812 -5.214844 Z M 24.976562 -3.980469 L 27.40625 -3.980469 L 27.453125 -5.128906 L 25.90625 -5.128906 C 25.640625 -4.730469 25.328125 -4.332031 24.976562 -3.980469 Z M 7.027344 -1.855469 L 13.878906 -1.855469 C 13.746094 -2.210938 13.660156 -2.5625 13.617188 -3.007812 L 7.292969 -3.007812 C 7.25 -2.5625 7.160156 -2.167969 7.027344 -1.855469 Z M 22.765625 -1.855469 L 27.363281 -1.855469 L 27.40625 -3.007812 L 24.09375 -3.007812 C 23.648438 -2.609375 23.207031 -2.210938 22.765625 -1.855469 Z M 22.765625 -1.855469 "/></g></g></g><g fill="#4ca550" fill-opacity="1"><g transform="translate(263.383846, 176.471781)"><g><path d="M 19.628906 5.878906 C 26.746094 5.878906 31.828125 0.796875 31.828125 -6.5 C 31.828125 -9.679688 30.898438 -12.597656 29.042969 -14.675781 L 25.949219 -18.65625 C 23.121094 -22.28125 19.230469 -23.5625 16.179688 -25.417969 L 16.179688 -25.773438 C 16.179688 -27.761719 17.371094 -29.132812 19.449219 -29.132812 C 20.289062 -29.132812 21.085938 -28.953125 21.707031 -28.601562 C 22.28125 -27.097656 22.546875 -25.417969 22.546875 -23.515625 L 26.566406 -18.476562 L 29.882812 -18.476562 L 29.882812 -31.917969 L 25.859375 -36.957031 L 22.589844 -36.957031 C 22.589844 -35.71875 22.632812 -34.703125 22.324219 -34.703125 C 21.882812 -34.703125 19.316406 -37.574219 14.542969 -37.574219 C 7.601562 -37.574219 2.785156 -32.757812 2.785156 -25.773438 C 2.785156 -22.898438 3.625 -20.246094 5.082031 -18.476562 L 8.929688 -13.835938 C 11.09375 -11.226562 14.808594 -9.679688 17.195312 -8.089844 C 17.242188 -7.824219 17.285156 -7.515625 17.285156 -7.117188 C 17.285156 -4.730469 15.824219 -3.136719 13.703125 -3.136719 C 12.777344 -3.136719 11.804688 -3.449219 10.875 -4.066406 C 10.078125 -5.835938 9.636719 -7.867188 9.59375 -10.125 L 5.570312 -15.117188 L 2.386719 -15.117188 L 2.386719 0.308594 L 6.410156 5.347656 L 9.636719 5.347656 C 9.726562 3.136719 9.8125 2.828125 10.167969 2.828125 C 11.359375 2.828125 14.324219 5.878906 19.628906 5.878906 Z M 16.089844 0.53125 C 11.09375 0.53125 8.3125 -2.519531 6.542969 -2.519531 C 5.4375 -2.519531 5.304688 -1.371094 5.214844 0 L 3.316406 0 L 3.316406 -14.191406 L 5.128906 -14.191406 C 5.4375 -6.941406 9.726562 -2.210938 13.703125 -2.210938 C 15.957031 -2.210938 18.210938 -3.800781 18.210938 -7.117188 C 18.210938 -15.691406 3.714844 -13.96875 3.714844 -25.773438 C 3.714844 -32.800781 8.664062 -36.648438 14.542969 -36.648438 C 19.496094 -36.648438 21.128906 -33.773438 22.5 -33.773438 C 23.253906 -33.773438 23.429688 -34.65625 23.515625 -36.027344 L 25.417969 -36.027344 L 25.417969 -23.828125 L 23.472656 -23.828125 C 23.386719 -28.910156 20.734375 -34.480469 15.914062 -34.480469 C 13.351562 -34.480469 11.714844 -32.757812 11.714844 -30.015625 C 11.714844 -22.101562 27.363281 -23.914062 27.363281 -10.917969 C 27.363281 -2.917969 21.394531 0.53125 16.089844 0.53125 Z M 8.796875 -33.109375 L 10.652344 -33.109375 C 10.785156 -33.507812 11.226562 -34.082031 11.539062 -34.4375 C 10.566406 -34.171875 9.503906 -33.683594 8.796875 -33.109375 Z M 23.78125 -30.503906 L 23.78125 -32.578125 C 23.5625 -32.402344 23.03125 -32.316406 22.722656 -32.316406 C 23.03125 -31.828125 23.5625 -31.03125 23.78125 -30.503906 Z M 6.761719 -30.855469 L 9.992188 -30.855469 C 10.035156 -31.253906 10.078125 -31.652344 10.210938 -32.003906 L 7.601562 -32.003906 C 7.292969 -31.652344 7.027344 -31.253906 6.761719 -30.855469 Z M 5.878906 -28.601562 L 10.078125 -28.601562 C 10.035156 -28.953125 9.945312 -29.351562 9.945312 -29.75 L 6.234375 -29.75 C 6.054688 -29.398438 5.96875 -29 5.878906 -28.601562 Z M 5.527344 -26.300781 L 10.875 -26.300781 C 10.652344 -26.65625 10.519531 -27.054688 10.34375 -27.453125 L 5.613281 -27.453125 C 5.570312 -27.097656 5.527344 -26.699219 5.527344 -26.300781 Z M 5.660156 -24.046875 L 12.730469 -24.046875 C 12.332031 -24.402344 11.9375 -24.800781 11.625 -25.199219 L 5.527344 -25.199219 C 5.527344 -24.800781 5.570312 -24.402344 5.660156 -24.046875 Z M 6.5 -21.792969 L 16.179688 -21.792969 C 15.515625 -22.148438 14.808594 -22.546875 14.234375 -22.941406 L 5.96875 -22.941406 C 6.101562 -22.546875 6.277344 -22.148438 6.5 -21.792969 Z M 8.355469 -19.539062 L 20.246094 -19.539062 C 19.582031 -19.9375 18.875 -20.335938 18.210938 -20.6875 L 7.207031 -20.6875 C 7.558594 -20.289062 7.957031 -19.894531 8.355469 -19.539062 Z M 11.804688 -17.242188 L 23.207031 -17.242188 C 22.808594 -17.636719 22.367188 -18.035156 21.882812 -18.390625 L 9.859375 -18.390625 C 10.519531 -18.035156 11.183594 -17.636719 11.804688 -17.242188 Z M 15.558594 -14.984375 L 24.753906 -14.984375 C 24.578125 -15.382812 24.3125 -15.78125 24.046875 -16.136719 L 13.703125 -16.136719 C 14.324219 -15.78125 14.941406 -15.382812 15.558594 -14.984375 Z M 18.082031 -12.730469 L 25.460938 -12.730469 C 25.375 -13.128906 25.285156 -13.527344 25.152344 -13.878906 L 17.019531 -13.878906 C 17.417969 -13.527344 17.769531 -13.128906 18.082031 -12.730469 Z M 19.40625 -10.476562 L 25.59375 -10.476562 L 25.59375 -11.625 L 18.875 -11.625 C 19.097656 -11.273438 19.273438 -10.875 19.40625 -10.476562 Z M 19.9375 -8.222656 L 25.285156 -8.222656 C 25.375 -8.574219 25.460938 -8.972656 25.507812 -9.371094 L 19.761719 -9.371094 C 19.847656 -9.019531 19.894531 -8.621094 19.9375 -8.222656 Z M 19.894531 -5.921875 L 24.445312 -5.921875 C 24.621094 -6.277344 24.800781 -6.675781 24.933594 -7.074219 L 19.980469 -7.074219 C 19.980469 -6.675781 19.9375 -6.277344 19.894531 -5.921875 Z M 5.171875 -4.066406 C 5.527344 -4.242188 6.011719 -4.375 6.542969 -4.375 C 6.054688 -5.039062 5.570312 -5.789062 5.171875 -6.585938 Z M 19.183594 -3.667969 L 22.722656 -3.667969 C 23.121094 -4.023438 23.472656 -4.421875 23.78125 -4.820312 L 19.671875 -4.820312 C 19.539062 -4.421875 19.363281 -4.023438 19.183594 -3.667969 Z M 16.886719 -1.28125 C 18.609375 -1.414062 20.15625 -1.902344 21.261719 -2.5625 L 18.433594 -2.5625 C 18.082031 -2.121094 17.417969 -1.589844 16.886719 -1.28125 Z M 16.886719 -1.28125 "/></g></g></g><g fill="#4ca550" fill-opacity="1"><g transform="translate(296.887346, 176.471781)"><g><path d="M 5.128906 5.347656 L 23.472656 5.347656 L 23.472656 1.988281 L 19.847656 -2.785156 L 19.847656 -27.539062 C 19.847656 -28.867188 19.804688 -28.820312 21.21875 -28.820312 L 23.472656 -28.820312 L 23.472656 -31.917969 L 19.449219 -36.957031 L 1.0625 -36.957031 L 1.0625 -33.863281 L 4.640625 -29.441406 L 4.640625 -3.757812 C 4.640625 -2.828125 4.640625 -2.785156 3.359375 -2.785156 L 1.105469 -2.785156 L 1.105469 0.308594 Z M 2.035156 0 L 2.035156 -1.855469 L 3.359375 -1.855469 C 5.128906 -1.855469 5.570312 -2.210938 5.570312 -3.757812 L 5.570312 -31.960938 C 5.570312 -33.816406 5.171875 -34.171875 3.316406 -34.171875 L 1.988281 -34.171875 L 1.988281 -36.027344 L 19.007812 -36.027344 L 19.007812 -34.171875 L 17.683594 -34.171875 C 15.824219 -34.171875 15.472656 -33.816406 15.472656 -31.960938 L 15.472656 -4.066406 C 15.472656 -2.210938 15.824219 -1.855469 17.683594 -1.855469 L 19.007812 -1.855469 L 19.007812 0 Z M 7.339844 -33.023438 L 13.703125 -33.023438 C 13.746094 -33.464844 13.835938 -33.863281 13.96875 -34.171875 L 7.027344 -34.171875 C 7.160156 -33.863281 7.292969 -33.464844 7.339844 -33.023438 Z M 7.382812 -30.8125 L 13.617188 -30.8125 L 13.617188 -31.960938 L 7.382812 -31.960938 Z M 7.382812 -28.601562 L 13.617188 -28.601562 L 13.617188 -29.75 L 7.382812 -29.75 Z M 7.382812 -26.347656 L 13.617188 -26.347656 L 13.617188 -27.496094 L 7.382812 -27.496094 Z M 7.382812 -24.136719 L 13.617188 -24.136719 L 13.617188 -25.285156 L 7.382812 -25.285156 Z M 7.382812 -21.882812 L 13.617188 -21.882812 L 13.617188 -23.03125 L 7.382812 -23.03125 Z M 7.382812 -19.671875 L 13.617188 -19.671875 L 13.617188 -20.820312 L 7.382812 -20.820312 Z M 7.382812 -17.460938 L 13.617188 -17.460938 L 13.617188 -18.609375 L 7.382812 -18.609375 Z M 7.382812 -15.207031 L 13.617188 -15.207031 L 13.617188 -16.355469 L 7.382812 -16.355469 Z M 7.382812 -12.996094 L 13.617188 -12.996094 L 13.617188 -14.144531 L 7.382812 -14.144531 Z M 7.382812 -10.785156 L 13.617188 -10.785156 L 13.617188 -11.9375 L 7.382812 -11.9375 Z M 7.382812 -8.53125 L 13.617188 -8.53125 L 13.617188 -9.679688 L 7.382812 -9.679688 Z M 7.382812 -6.320312 L 13.617188 -6.320312 L 13.617188 -7.472656 L 7.382812 -7.472656 Z M 7.382812 -4.109375 L 13.617188 -4.109375 L 13.617188 -5.261719 L 7.382812 -5.261719 Z M 7.027344 -1.855469 L 13.96875 -1.855469 C 13.835938 -2.210938 13.746094 -2.5625 13.703125 -3.007812 L 7.339844 -3.007812 C 7.292969 -2.5625 7.160156 -2.210938 7.027344 -1.855469 Z M 7.027344 -1.855469 "/></g></g></g><g fill="#4ca550" fill-opacity="1"><g transform="translate(321.418272, 176.471781)"><g><path d="M 19.628906 5.878906 C 26.746094 5.878906 31.828125 0.796875 31.828125 -6.5 C 31.828125 -9.679688 30.898438 -12.597656 29.042969 -14.675781 L 25.949219 -18.65625 C 23.121094 -22.28125 19.230469 -23.5625 16.179688 -25.417969 L 16.179688 -25.773438 C 16.179688 -27.761719 17.371094 -29.132812 19.449219 -29.132812 C 20.289062 -29.132812 21.085938 -28.953125 21.707031 -28.601562 C 22.28125 -27.097656 22.546875 -25.417969 22.546875 -23.515625 L 26.566406 -18.476562 L 29.882812 -18.476562 L 29.882812 -31.917969 L 25.859375 -36.957031 L 22.589844 -36.957031 C 22.589844 -35.71875 22.632812 -34.703125 22.324219 -34.703125 C 21.882812 -34.703125 19.316406 -37.574219 14.542969 -37.574219 C 7.601562 -37.574219 2.785156 -32.757812 2.785156 -25.773438 C 2.785156 -22.898438 3.625 -20.246094 5.082031 -18.476562 L 8.929688 -13.835938 C 11.09375 -11.226562 14.808594 -9.679688 17.195312 -8.089844 C 17.242188 -7.824219 17.285156 -7.515625 17.285156 -7.117188 C 17.285156 -4.730469 15.824219 -3.136719 13.703125 -3.136719 C 12.777344 -3.136719 11.804688 -3.449219 10.875 -4.066406 C 10.078125 -5.835938 9.636719 -7.867188 9.59375 -10.125 L 5.570312 -15.117188 L 2.386719 -15.117188 L 2.386719 0.308594 L 6.410156 5.347656 L 9.636719 5.347656 C 9.726562 3.136719 9.8125 2.828125 10.167969 2.828125 C 11.359375 2.828125 14.324219 5.878906 19.628906 5.878906 Z M 16.089844 0.53125 C 11.09375 0.53125 8.3125 -2.519531 6.542969 -2.519531 C 5.4375 -2.519531 5.304688 -1.371094 5.214844 0 L 3.316406 0 L 3.316406 -14.191406 L 5.128906 -14.191406 C 5.4375 -6.941406 9.726562 -2.210938 13.703125 -2.210938 C 15.957031 -2.210938 18.210938 -3.800781 18.210938 -7.117188 C 18.210938 -15.691406 3.714844 -13.96875 3.714844 -25.773438 C 3.714844 -32.800781 8.664062 -36.648438 14.542969 -36.648438 C 19.496094 -36.648438 21.128906 -33.773438 22.5 -33.773438 C 23.253906 -33.773438 23.429688 -34.65625 23.515625 -36.027344 L 25.417969 -36.027344 L 25.417969 -23.828125 L 23.472656 -23.828125 C 23.386719 -28.910156 20.734375 -34.480469 15.914062 -34.480469 C 13.351562 -34.480469 11.714844 -32.757812 11.714844 -30.015625 C 11.714844 -22.101562 27.363281 -23.914062 27.363281 -10.917969 C 27.363281 -2.917969 21.394531 0.53125 16.089844 0.53125 Z M 8.796875 -33.109375 L 10.652344 -33.109375 C 10.785156 -33.507812 11.226562 -34.082031 11.539062 -34.4375 C 10.566406 -34.171875 9.503906 -33.683594 8.796875 -33.109375 Z M 23.78125 -30.503906 L 23.78125 -32.578125 C 23.5625 -32.402344 23.03125 -32.316406 22.722656 -32.316406 C 23.03125 -31.828125 23.5625 -31.03125 23.78125 -30.503906 Z M 6.761719 -30.855469 L 9.992188 -30.855469 C 10.035156 -31.253906 10.078125 -31.652344 10.210938 -32.003906 L 7.601562 -32.003906 C 7.292969 -31.652344 7.027344 -31.253906 6.761719 -30.855469 Z M 5.878906 -28.601562 L 10.078125 -28.601562 C 10.035156 -28.953125 9.945312 -29.351562 9.945312 -29.75 L 6.234375 -29.75 C 6.054688 -29.398438 5.96875 -29 5.878906 -28.601562 Z M 5.527344 -26.300781 L 10.875 -26.300781 C 10.652344 -26.65625 10.519531 -27.054688 10.34375 -27.453125 L 5.613281 -27.453125 C 5.570312 -27.097656 5.527344 -26.699219 5.527344 -26.300781 Z M 5.660156 -24.046875 L 12.730469 -24.046875 C 12.332031 -24.402344 11.9375 -24.800781 11.625 -25.199219 L 5.527344 -25.199219 C 5.527344 -24.800781 5.570312 -24.402344 5.660156 -24.046875 Z M 6.5 -21.792969 L 16.179688 -21.792969 C 15.515625 -22.148438 14.808594 -22.546875 14.234375 -22.941406 L 5.96875 -22.941406 C 6.101562 -22.546875 6.277344 -22.148438 6.5 -21.792969 Z M 8.355469 -19.539062 L 20.246094 -19.539062 C 19.582031 -19.9375 18.875 -20.335938 18.210938 -20.6875 L 7.207031 -20.6875 C 7.558594 -20.289062 7.957031 -19.894531 8.355469 -19.539062 Z M 11.804688 -17.242188 L 23.207031 -17.242188 C 22.808594 -17.636719 22.367188 -18.035156 21.882812 -18.390625 L 9.859375 -18.390625 C 10.519531 -18.035156 11.183594 -17.636719 11.804688 -17.242188 Z M 15.558594 -14.984375 L 24.753906 -14.984375 C 24.578125 -15.382812 24.3125 -15.78125 24.046875 -16.136719 L 13.703125 -16.136719 C 14.324219 -15.78125 14.941406 -15.382812 15.558594 -14.984375 Z M 18.082031 -12.730469 L 25.460938 -12.730469 C 25.375 -13.128906 25.285156 -13.527344 25.152344 -13.878906 L 17.019531 -13.878906 C 17.417969 -13.527344 17.769531 -13.128906 18.082031 -12.730469 Z M 19.40625 -10.476562 L 25.59375 -10.476562 L 25.59375 -11.625 L 18.875 -11.625 C 19.097656 -11.273438 19.273438 -10.875 19.40625 -10.476562 Z M 19.9375 -8.222656 L 25.285156 -8.222656 C 25.375 -8.574219 25.460938 -8.972656 25.507812 -9.371094 L 19.761719 -9.371094 C 19.847656 -9.019531 19.894531 -8.621094 19.9375 -8.222656 Z M 19.894531 -5.921875 L 24.445312 -5.921875 C 24.621094 -6.277344 24.800781 -6.675781 24.933594 -7.074219 L 19.980469 -7.074219 C 19.980469 -6.675781 19.9375 -6.277344 19.894531 -5.921875 Z M 5.171875 -4.066406 C 5.527344 -4.242188 6.011719 -4.375 6.542969 -4.375 C 6.054688 -5.039062 5.570312 -5.789062 5.171875 -6.585938 Z M 19.183594 -3.667969 L 22.722656 -3.667969 C 23.121094 -4.023438 23.472656 -4.421875 23.78125 -4.820312 L 19.671875 -4.820312 C 19.539062 -4.421875 19.363281 -4.023438 19.183594 -3.667969 Z M 16.886719 -1.28125 C 18.609375 -1.414062 20.15625 -1.902344 21.261719 -2.5625 L 18.433594 -2.5625 C 18.082031 -2.121094 17.417969 -1.589844 16.886719 -1.28125 Z M 16.886719 -1.28125 "/></g></g></g></svg>